<?xml version="1.0" standalone="no"?>
<!DOCTYPE svg PUBLIC "-//W3C//DTD SVG 20010904//EN"
 "http://www.w3.org/TR/2001/REC-SVG-20010904/DTD/svg10.dtd">
<svg version="1.0" xmlns="http://www.w3.org/2000/svg"
 width="1119.000000pt" height="389.000000pt" viewBox="0 0 1119.000000 389.000000"
 preserveAspectRatio="xMidYMid meet">

<g transform="translate(0.000000,389.000000) scale(0.100000,-0.100000)"
fill="#000000" stroke="none">
<path d="M6770 2916 c-110 -32 -196 -101 -240 -191 -33 -70 -33 -167 3 -254
l26 -64 -48 -43 c-26 -23 -63 -71 -82 -106 -32 -59 -34 -69 -34 -158 0 -84 3
-101 27 -146 52 -99 158 -178 274 -205 72 -16 225 -13 292 6 31 9 83 32 115
51 l58 36 82 -35 c99 -42 150 -57 200 -57 l37 0 0 130 0 130 -27 6 c-38 8
-116 35 -126 44 -4 4 1 40 12 80 11 40 23 106 27 146 l7 74 -145 0 -145 0 -7
-62 c-3 -34 -8 -63 -11 -66 -19 -19 -209 172 -253 255 -39 74 -42 130 -9 168
43 51 131 25 151 -44 6 -22 14 -30 25 -27 17 5 136 37 209 56 23 6 42 16 42
23 0 7 -13 39 -28 72 -56 116 -165 185 -305 191 -49 2 -100 -2 -127 -10z m-29
-752 c18 -20 64 -63 101 -95 37 -32 63 -61 57 -64 -5 -4 -34 -9 -64 -12 -100
-10 -185 43 -185 117 0 26 34 90 48 90 4 0 24 -16 43 -36z"/>
<path d="M3166 2894 c-202 -49 -383 -233 -432 -440 -21 -90 -15 -226 15 -308
63 -178 205 -315 385 -372 97 -31 245 -35 339 -10 240 65 396 271 397 524 l0
72 -280 0 -280 0 0 -60 0 -60 211 0 211 0 -6 -47 c-9 -65 -59 -165 -101 -201
-183 -161 -476 -145 -645 34 -76 81 -112 165 -118 278 -5 107 16 185 75 274
94 141 287 225 445 193 78 -15 192 -68 241 -111 21 -18 39 -31 41 -29 21 27
66 100 66 107 0 16 -69 67 -139 101 -131 66 -292 87 -425 55z"/>
<path d="M8086 2882 c-18 -34 -468 -992 -502 -1069 l-24 -53 171 0 170 0 30
65 29 65 214 0 214 0 28 -65 28 -65 168 0 c96 0 168 4 168 9 0 5 -119 263
-264 573 l-265 563 -75 3 c-74 3 -75 2 -90 -26z m144 -635 c29 -65 50 -121 47
-123 -2 -3 -51 -3 -109 -2 l-105 3 55 123 c30 67 56 121 58 120 1 -2 26 -56
54 -121z"/>
<path d="M1310 2329 l0 -571 238 4 c266 5 312 14 427 83 151 91 237 237 251
429 17 215 -62 403 -212 512 -125 89 -236 113 -521 114 l-183 0 0 -571z m475
416 c125 -32 231 -126 275 -242 31 -81 38 -219 15 -299 -37 -129 -106 -212
-218 -264 -77 -36 -160 -50 -299 -50 l-108 0 0 435 0 435 138 0 c91 0 158 -5
197 -15z"/>
<path d="M2410 2330 l0 -570 65 0 65 0 0 570 0 570 -65 0 -65 0 0 -570z"/>
<path d="M4050 2330 l0 -570 65 0 65 0 0 570 0 570 -65 0 -65 0 0 -570z"/>
<path d="M4400 2330 l0 -570 278 0 c292 0 334 5 420 49 59 30 123 96 152 156
19 38 26 71 28 133 4 73 1 89 -22 137 -32 65 -112 140 -167 156 -37 12 -38 13
-19 26 32 23 70 97 77 150 13 114 -54 226 -170 283 -85 41 -149 50 -379 50
l-198 0 0 -570z m434 286 c40 -17 61 -61 47 -99 -14 -36 -60 -57 -126 -57
l-55 0 0 85 0 85 50 0 c28 0 65 -6 84 -14z m67 -376 c49 -14 81 -50 81 -93 0
-80 -46 -107 -186 -107 l-96 0 0 105 0 105 83 0 c45 0 98 -5 118 -10z"/>
<path d="M5380 2331 l0 -571 155 0 155 0 2 241 3 241 139 -222 c77 -122 146
-230 155 -241 15 -18 28 -19 194 -17 l178 3 -147 215 c-80 118 -148 220 -151
226 -3 7 8 19 24 28 42 21 112 101 136 154 28 64 34 176 13 238 -40 117 -131
205 -255 246 -59 19 -94 22 -333 26 l-268 4 0 -571z m495 273 c58 -27 79 -106
42 -154 -31 -40 -60 -50 -144 -50 l-83 0 0 110 0 110 76 0 c48 0 88 -6 109
-16z"/>
<path d="M8870 2330 l0 -572 268 5 c296 4 331 10 461 73 132 65 232 191 266
335 34 146 9 346 -58 457 -42 71 -139 160 -210 195 -119 58 -188 69 -469 74
l-258 6 0 -573z m524 254 c74 -26 140 -95 161 -168 42 -146 -17 -278 -150
-337 -36 -17 -75 -24 -142 -27 l-93 -4 0 282 0 283 88 -6 c48 -3 109 -13 136
-23z"/>
<path d="M1405 1606 c-37 -16 -70 -52 -84 -89 -6 -16 -11 -101 -11 -195 0
-188 8 -217 70 -260 l33 -22 4194 2 4194 3 40 42 39 42 0 193 c0 222 -6 244
-83 278 -41 19 -121 20 -4202 19 -3445 0 -4165 -2 -4190 -13z m1159 -90 c30
-13 76 -59 76 -76 0 -4 -17 -15 -37 -23 -37 -14 -38 -14 -64 14 -65 70 -151
-2 -136 -113 11 -83 90 -118 139 -60 21 25 27 27 61 19 46 -11 47 -27 3 -74
-33 -36 -37 -38 -108 -41 -57 -2 -80 1 -108 16 -52 28 -80 84 -80 159 0 95 29
150 95 179 39 17 117 18 159 0z m936 -5 c41 -22 60 -52 60 -99 0 -37 -6 -50
-34 -78 l-33 -33 29 -43 c16 -24 36 -55 44 -70 l15 -28 -50 0 -50 0 -41 71
c-37 62 -45 70 -68 67 -26 -3 -27 -6 -30 -70 l-3 -68 -44 0 -45 0 0 186 0 187
113 -5 c64 -2 123 -10 137 -17z m970 -21 l0 -40 -95 0 -95 0 0 -35 0 -34 78
-3 77 -3 3 -32 3 -33 -81 0 -81 0 3 -37 3 -38 98 -3 97 -3 0 -34 0 -35 -145 0
-145 0 0 185 0 185 140 0 140 0 0 -40z m887 -140 c34 -96 62 -178 62 -182 1
-5 -21 -8 -47 -8 -48 0 -49 1 -58 38 l-9 37 -67 3 -67 3 -11 -41 c-11 -40 -11
-40 -59 -40 l-48 0 65 185 65 186 56 -3 56 -3 62 -175z m968 140 l0 -35 -57
-3 -58 -3 0 -144 0 -145 -45 0 -45 0 0 145 0 145 -60 0 -60 0 0 40 0 40 163
-2 162 -3 0 -35z m705 -145 l0 -185 -45 0 -45 0 0 185 0 185 45 0 45 0 0 -185z
m745 43 c22 -75 43 -139 46 -143 4 -3 9 8 13 25 3 18 22 83 41 146 l36 114 45
0 c24 0 44 -3 44 -7 0 -5 -28 -88 -62 -185 l-63 -178 -55 0 -55 0 -63 178
c-34 97 -62 181 -62 185 0 4 21 7 47 5 l47 -3 41 -137z m1115 102 l0 -40 -95
0 -95 0 0 -35 0 -34 78 -3 77 -3 3 -32 3 -33 -81 0 -81 0 3 -37 3 -38 98 -3
97 -3 0 -34 0 -35 -145 0 -145 0 0 185 0 185 140 0 140 0 0 -40z"/>
<path d="M3344 1447 c-3 -8 -4 -30 -2 -49 3 -32 5 -33 49 -36 50 -3 79 14 79
47 0 27 -24 43 -75 49 -34 3 -46 1 -51 -11z"/>
<path d="M5213 1380 l-21 -70 44 0 c24 0 44 2 44 4 0 9 -41 136 -44 136 -1 0
-12 -31 -23 -70z"/>
</g>
</svg>
